<?xml version="1.0" encoding="utf-8"?><svg xmlns="http://www.w3.org/2000/svg" xmlns:xlink="http://www.w3.org/1999/xlink"><symbol viewBox="0 0 40 40" id="Group_68" xmlns="http://www.w3.org/2000/svg"><rect x=".5" y=".5" width="39" height="39" rx="19.5"/><path d="M18 26l6-6-6-6" stroke-linecap="round" stroke-linejoin="round"/></symbol><symbol viewBox="0 0 162 24" id="header-logo" xmlns="http://www.w3.org/2000/svg"><path d="M11.74 23.86a11.31 11.31 0 01-5.884-1.614 11.712 11.712 0 01-4.278-4.357A11.815 11.815 0 010 11.916C0 9.76.526 7.782 1.564 5.958a11.885 11.885 0 014.279-4.343A11.395 11.395 0 0111.74 0a11.3 11.3 0 014.72 1.016 12.108 12.108 0 013.974 2.882L19.19 5.012a10.167 10.167 0 00-3.378-2.506 9.642 9.642 0 00-4.084-.891c-1.828 0-3.517.46-5.068 1.378a10.352 10.352 0 00-3.682 3.745c-.914 1.573-1.371 3.3-1.371 5.165 0 1.865.457 3.591 1.37 5.164.914 1.573 2.147 2.84 3.697 3.759a9.762 9.762 0 005.068 1.378 9.75 9.75 0 004.333-1.002 10.397 10.397 0 003.517-2.798l1.287 1.002a11.792 11.792 0 01-4.07 3.285 11.374 11.374 0 01-5.067 1.17zM41.456 12.765H27.749v10.83h-1.647V.293h1.647v10.83h13.707V.293h1.606V23.61h-1.606V12.765zM50.383 23.61V.294h1.606v23.318h-1.606zM81.595 23.61V5.165L71.322 19.907 60.911 5.123v18.473h-1.606V0l12.017 17.081L83.202 0v23.61h-1.607zM100.36 23.86c-2.119 0-4.085-.529-5.885-1.6a11.475 11.475 0 01-4.278-4.344c-1.052-1.824-1.564-3.814-1.564-5.972 0-2.158.526-4.149 1.564-5.972a11.884 11.884 0 014.278-4.344 11.466 11.466 0 015.885-1.6c2.118 0 4.084.528 5.884 1.6a11.484 11.484 0 014.278 4.344c1.052 1.823 1.564 3.814 1.564 5.972 0 2.158-.526 4.148-1.564 5.972a11.898 11.898 0 01-4.278 4.343c-1.814 1.058-3.766 1.601-5.884 1.601zm0-22.176c-1.828 0-3.517.46-5.068 1.378a10.243 10.243 0 00-3.696 3.731c-.914 1.573-1.371 3.285-1.371 5.15 0 1.866.457 3.579 1.37 5.152a10.243 10.243 0 003.697 3.73 9.763 9.763 0 005.068 1.379c1.827 0 3.516-.46 5.067-1.378a10.07 10.07 0 003.669-3.731 10.186 10.186 0 001.356-5.151c0-1.866-.456-3.578-1.356-5.151a10.275 10.275 0 00-3.669-3.73 9.764 9.764 0 00-5.067-1.379zM118.919 4.664V23.61h-1.607V0l16.061 19.295V.292h1.606V24l-16.06-19.336zM150.955 13.782l9.138-13.49h1.924l-10.273 15.244v8.074h-1.606v-8.074L139.852.292h1.924l9.179 13.49z"/></symbol><symbol viewBox="0 0 16 16" id="header-phone" xmlns="http://www.w3.org/2000/svg"><path d="M13.659 2.333A7.945 7.945 0 008.027 0C3.624 0 .056 3.556.056 7.944c0 1.39.39 2.778 1.059 3.945L0 16l4.237-1.111a8.151 8.151 0 003.79.944c4.405 0 7.973-3.555 7.973-7.944-.056-2.056-.836-4.056-2.341-5.556zm-1.784 8.445c-.168.444-.948.889-1.338.944-.335.056-.78.056-1.227-.055-.279-.111-.669-.223-1.115-.445-2.007-.833-3.29-2.833-3.4-3-.112-.11-.837-1.055-.837-2.055 0-1 .502-1.445.67-1.667.166-.222.39-.222.557-.222h.39c.111 0 .279-.056.446.333.167.389.557 1.389.613 1.445a.353.353 0 010 .333 1.162 1.162 0 01-.223.333c-.111.111-.223.278-.279.334-.111.11-.223.222-.111.388.111.223.502.834 1.115 1.39.78.666 1.394.888 1.617 1 .223.11.334.055.446-.056.111-.111.501-.556.613-.778.111-.222.279-.167.446-.111.167.055 1.17.555 1.338.667.223.11.334.166.39.222.056.166.056.555-.111 1z"/></symbol><symbol viewBox="0 0 16 16" id="header-search" xmlns="http://www.w3.org/2000/svg"><path d="M7.333 12.667A5.333 5.333 0 107.333 2a5.333 5.333 0 000 10.667zM14.002 14l-2.9-2.9" stroke-linecap="round" stroke-linejoin="round"/></symbol><symbol viewBox="0 0 24 24" id="keys-arrow" xmlns="http://www.w3.org/2000/svg"><path d="M9 18l6-6-6-6" stroke-linecap="round" stroke-linejoin="round"/></symbol><symbol viewBox="0 0 100 60" id="keys-logo" xmlns="http://www.w3.org/2000/svg"><path d="M0 0h100v60H0z"/><g clip-path="url(#clip0_370_1742)"><path d="M50.323 26.902c-1.056-.67-2.09-1.381-3.18-2.007a43.402 43.402 0 00-14.308-5.224 47.708 47.708 0 00-7.67-.73 46.358 46.358 0 00-12.707 1.477.163.163 0 01-.146 0c2.763-3.186 6.308-4.46 10.385-4.464a18.992 18.992 0 00-4.28-.788 11.667 11.667 0 00-4.398.378c.113-.18.263-.334.44-.45a10.909 10.909 0 014.042-1.831 24.51 24.51 0 014.227-.725.43.43 0 00.325-.112c-2.036-.9-4.17-.9-6.307-.9a10.416 10.416 0 011.724-.531A32.115 32.115 0 0127.43 10c5.4.225 10.336 1.8 14.615 5.27a27.103 27.103 0 016.822 8.45 26.469 26.469 0 011.482 3.15l-.026.032zm-3.778-4.342l.092.067c.04-.058 0-.099-.035-.13-.084-.108-.167-.225-.26-.329a28.01 28.01 0 00-2.722-2.7 16.612 16.612 0 00-5.485-3.357 33.349 33.349 0 00-5.678-1.35 10.656 10.656 0 00-2.389-.216.955.955 0 00.159.059c3.007.62 5.92 1.644 8.665 3.046a43.777 43.777 0 017.653 4.91zm-3.761-4.586c-1.126-2.002-5.775-4.243-7.952-3.838a20.666 20.666 0 017.952 3.838zm.07 0v.05c.006.021.019.04.036.054l.035-.081-.07-.023zM45.823 30.043c1.632.104 3.268.194 4.908.31.257.04.519.005.757-.099a1.41 1.41 0 00.594-.49c.959-1.296 1.957-2.56 2.92-3.838.126-.213.312-.38.534-.481.222-.101.468-.13.707-.082.227.052.434.175.592.35.157.177.258.399.287.636.405 1.606.827 3.208 1.227 4.815.05.222.16.426.314.59.155.164.35.282.566.341 1.553.567 3.079 1.152 4.649 1.715.219.06.415.185.562.36a1.165 1.165 0 01.133 1.29 1.13 1.13 0 01-.475.474c-1.364.9-2.714 1.773-4.086 2.66-.22.127-.401.315-.525.54a1.444 1.444 0 00-.174.742c-.031 1.66-.093 3.32-.141 4.981a1.166 1.166 0 01-.337.818 1.115 1.115 0 01-.807.325c-.273 0-.537-.1-.743-.283-1.262-1.062-2.538-2.115-3.796-3.186a1.29 1.29 0 00-1.32-.297c-1.556.477-3.122.9-4.683 1.381a1.098 1.098 0 01-1.251-.291 1.17 1.17 0 01-.165-1.302c.575-1.516 1.152-3.046 1.759-4.558A1.42 1.42 0 0047.657 36c-.937-1.372-1.843-2.763-2.762-4.14a1.156 1.156 0 01.346-1.646c.18-.106.384-.16.59-.154l-.008-.018zm7.253 4.568h-.159c-.14 0-.325-.09-.417.063-.093.153.057.324.158.45a.915.915 0 01.088 1.184c-.057.116-.154.256-.027.386.128.13.242 0 .352 0 .379-.121.74-.26 1.074.13.114.131.255.379.475.266.22-.112.127-.369.114-.549a.743.743 0 01.093-.484.716.716 0 01.373-.312c.051-.027.101-.057.15-.09.092-.077.25-.113.233-.275-.018-.162-.18-.184-.29-.207a.907.907 0 01-.588-.286.947.947 0 01-.252-.614c0-.126 0-.315-.18-.355-.181-.04-.247.153-.326.265-.238.275-.453.567-.871.428zM8.357 36.447a10.878 10.878 0 00-.167-1.962c-.225-1.8-.493-3.636-.709-5.459a5.388 5.388 0 01.102-2.002c.052-.284.194-.543.403-.736.21-.194.476-.311.758-.335a7.202 7.202 0 011.76 0c.756.099 1.156.643 1.319 1.598a10.08 10.08 0 01-.106 3.019 25.773 25.773 0 00-.207 5.08c.04.968.088 1.931.159 2.894.127 1.877.334 3.753.527 5.612.08.742-.123 1.084-.844 1.246-.359.085-.723.14-1.09.162-.63.05-1.074-.292-1.378-.968-1.121-2.438-2.155-4.922-3.43-7.285-.44-.783-.88-1.557-1.32-2.313a.444.444 0 00-.22-.198c.04.423.075.85.11 1.278.245 2.232.35 4.477.313 6.723-.049 1.3-.132 1.404-1.35 1.697a5.636 5.636 0 01-1.734.216C.22 44.65-.198 44.043.088 43.039c.314-1.376.478-2.784.488-4.198.075-1.602.07-3.204.022-4.802-.075-2.299-.092-4.594-.29-6.88a.662.662 0 01.05-.4.643.643 0 01.27-.293 7.485 7.485 0 012.64-.81c.391-.04.55.135.65.576.33 1.404.674 2.808.99 4.221a12.11 12.11 0 002.024 4.136c.416.665.893 1.289 1.425 1.863l.03.044v-.027l-.03-.022zm-6.712-9.49c.405-.122.814-.244 1.218-.379.203-.067.286-.031.317.198.189.927.4 1.859.607 2.786.159.778.363 1.546.611 2.3a.948.948 0 000-.315c-.264-1.774-.536-3.547-.791-5.32-.036-.27-.154-.279-.344-.207-.59.211-1.137.528-1.618.936zm8.088 17.5c.19.063.379.144.576.194.911.211 1.298-.167 1.157-1.108a.38.38 0 000-.067 8.213 8.213 0 00-.95-2.425c-.035-.068-.061-.158-.171-.136a.12.12 0 000 .122c.248.845.42 1.71.514 2.587.049.45-.048.558-.44.675a6.039 6.039 0 00-.66.149l-.026.009zm-8.326-.392c.662.12 1.344.024 1.949-.274a.832.832 0 00.313-.241.858.858 0 00.17-.362c.158-1.07.177-2.156.058-3.231a26.533 26.533 0 01-.396 2.7c-.039.213-.13.412-.263.58a1.264 1.264 0 01-.502.378c-.433.18-.877.33-1.329.45zM35.681 40.659c.378-1.476.752-2.889 1.113-4.316.647-2.56 1.32-5.112 1.852-7.708.114-.576.15-1.166.25-1.746.115-.684.365-.945 1.047-1.003.91-.09 1.828.053 2.67.418a.873.873 0 01.583.48.918.918 0 01.01.767 20348.64 20348.64 0 00-3.18 14.233c-.039.171-.105.337-.14.508a3.139 3.139 0 01-.95 1.75c-.497.46-1.127.74-1.795.797a7.35 7.35 0 01-3.782-.252 2.752 2.752 0 01-1.36-.994 1.782 1.782 0 01-.285-.743c-.616-3.69-1.226-7.378-1.83-11.065-.224-1.35-.44-2.745-.633-4.117a3.5 3.5 0 01-.031-.567c0-.558.08-.698.603-.806a6.68 6.68 0 012.15-.248c.256.015.499.118.69.292.19.174.318.41.362.667.47 2.39.95 4.779 1.416 7.169.409 2.119.84 4.243 1.174 6.376-.017.018.013.05.066.108zm-3.615.22a2.71 2.71 0 00-.075 1.144c.017.408.15.802.385 1.133.235.33.56.583.934.725 1.043.387 2.134.297 3.3.203-.683-.208-1.272-.397-1.87-.563a3.62 3.62 0 01-1.646-.902c-.462-.442-.805-1-.993-1.618.009-.04.009-.081-.035-.121zm9.28-13.607a3.279 3.279 0 00-1.258-.824c-.29-.113-.413 0-.44.293-.096.616-.22 1.224-.338 1.835-.185.99-.379 1.985-.576 3.029a.82.82 0 00.206-.392c.44-1.264.796-2.551 1.157-3.843.066-.242.172-.292.392-.247.255.058.55.099.857.148zM27.54 33.157c-.084 3.11-.88 6.003-2.705 8.523a7.075 7.075 0 01-3.919 2.853 5.75 5.75 0 01-2.806.032c-1.377-.324-2.085-1.395-2.6-2.62a17.345 17.345 0 01-1.112-4.729 30.337 30.337 0 01-.273-3.514c0-3.708 1.733-6.3 5.106-7.65a7.923 7.923 0 012.974-.693 4.424 4.424 0 012.416.63 4.565 4.565 0 011.718 1.85 10.073 10.073 0 011.13 4.05c.06.42.083.844.07 1.268zm-3.717.45a6.489 6.489 0 00-.088-1.273c-.184-1.067-.554-2.052-1.482-2.66-1.188-.765-1.984-.819-3.048.027a4.624 4.624 0 00-1.61 2.754 8.967 8.967 0 00.18 3.839c.146.92.476 1.802.968 2.587.127.22.296.412.498.563a1.796 1.796 0 001.418.321c.245-.049.478-.15.684-.294a4.388 4.388 0 001.592-1.683 8.229 8.229 0 00.888-4.18zm2.362-1.557c.321-3.267-1.64-4.91-3.589-4.76a5.124 5.124 0 012.349 1.952c.55.867.967 1.814 1.24 2.808zm-6.193 8.424v-.04l-.475-.086a2.17 2.17 0 01-1.147-.458 2.248 2.248 0 01-.726-1.018c-.123-.333-.255-.657-.361-.99-.154-.486-.29-.972-.44-1.516a9.204 9.204 0 00.053 2.6c.194 1.184.968 1.837 2.023 1.68.348-.046.717-.109 1.073-.172zM91.21 25.625a9.215 9.215 0 012.952.314 7.895 7.895 0 014.253 3.645 11.405 11.405 0 011.57 5.711 12.63 12.63 0 01-.44 3.915c-.8 2.745-2.586 4.432-5.278 5.161-1.659.371-3.366.462-5.053.27a1.05 1.05 0 01-.745-.286 1.1 1.1 0 01-.342-.735 18.41 18.41 0 01-.334-3.438c-.097-2.7.198-5.364.163-8.05-.031-2.003-.049-4.005-.093-6.012 0-.253.027-.37.322-.387.91-.05 1.83-.108 3.025-.108zM93.486 44.2c.237-.044.475-.076.708-.135a6.295 6.295 0 003.4-1.8 3.536 3.536 0 00.998-1.921c-.343.45-.7.9-1.034 1.35a4.886 4.886 0 01-1.975 1.66c-.684.302-1.39.55-2.11.743-.163.063-.366 0-.56.22l.572-.117zm3.395-9c0-.409-.036-.817-.11-1.219-.506-2.88-2.639-4.464-5.133-4.95-.228-.045-.272.04-.268.252.026 1.899.05 3.797.07 5.692 0 1.931.049 3.866.066 5.797 0 .252.075.297.304.233a9.041 9.041 0 002.78-1.305 5.065 5.065 0 001.73-1.938c.402-.79.595-1.672.561-2.562zm-5.951-8.932a3.784 3.784 0 00-1.71-.297c-.66.054-.854.27-.845.936 0 2.03.035 4.05.074 6.075-.031.48-.003.963.084 1.435.062-1.093.136-2.178.18-3.248a19.264 19.264 0 000-3.38 2.76 2.76 0 01.044-.738c.062-.45.18-.558.616-.612.532-.072 1.047-.122 1.557-.171zM74.218 44.798h-1.157a.658.658 0 01-.591-.207.691.691 0 01-.17-.616c.04-.729.088-1.453.08-2.183a6.477 6.477 0 00-.524-2.659 3.406 3.406 0 00-.806-1.185 3.313 3.313 0 00-1.213-.736c-.312-.109-.44 0-.44.292-.052.824-.052 1.65 0 2.475.125 1.29.14 2.587.044 3.879-.074.608-.233.752-.791.9a5.757 5.757 0 01-3.136-.036.503.503 0 01-.337-.195.527.527 0 01-.103-.381c.018-.837.114-1.67.286-2.489a37.37 37.37 0 00.537-7.703c-.049-2.12-.106-4.24-.159-6.359a2.71 2.71 0 01.08-.841c.066-.266.215-.502.423-.674.209-.171.466-.27.733-.28a7.005 7.005 0 011.891 0c.7.125.924.45.845 1.147-.167 1.512-.255 3.024-.488 4.527-.036.225-.22.536 0 .657s.418-.157.62-.293a4.033 4.033 0 001.32-1.633c.453-.927.843-1.885 1.17-2.866.29-.792.615-1.026 1.442-.963.44.035.88.085 1.346.143.466.059.69.37.642.9-.273 2.8-1.76 4.753-4.046 6.206-.128.081-.357.13-.34.292.018.163.247.14.379.198a7.428 7.428 0 013.752 3.843 12.496 12.496 0 011.126 5.553c0 .855-.317 1.18-1.183 1.233-.414.032-.832 0-1.245 0l.013.054zm.968-3.865c-.16.67-.363 1.328-.607 1.971a2.71 2.71 0 01-.686 1.116.616.616 0 01-.446.174.61.61 0 01-.434-.201.502.502 0 01-.084-.108 5.51 5.51 0 01-.325-.693c-.033.288-.006.579.08.855a.845.845 0 00.365.522.805.805 0 00.62.103l.118-.035c.23-.06.444-.176.622-.337.178-.162.316-.364.403-.59a6.835 6.835 0 00.378-2.777h-.004zm-.823-10.683c.42-.47.722-1.036.88-1.651.242-.959-.286-1.652-1.284-1.697 1.1.733 1.2 1.035.787 2.34a3.855 3.855 0 01-.088.27c-.114.265-.207.495-.295.738zm-.602-3.375h-.123.123zM79.789 31.232c-.01-.485.002-.97.04-1.454.14-.9.61-1.611 1.71-1.548.6-.02 1.2.006 1.795.076a.912.912 0 01.647.318.956.956 0 01.233.695 23.971 23.971 0 01-.12 3.276c-.083 1.264-.162 2.538-.166 3.807 0 1.733-.027 3.465.083 5.193.04.612.075 1.224.057 1.836a1.38 1.38 0 01-.333 1.05 1.295 1.295 0 01-.986.445c-.86.09-1.728.066-2.582-.073a.744.744 0 01-.46-.217.777.777 0 01-.222-.467 8.081 8.081 0 01-.118-2.25c.096-1.408.167-2.817.202-4.23.044-1.521.08-3.038.15-4.554.03-.567.03-1.134.07-1.903zm1.187-1.544l1.694.338c.532.108.681.297.492.855-.142.46-.214.94-.215 1.422-.027.9-.084 1.773-.101 2.7v3.496c0-.122.026-.18.03-.234.159-1.39.322-2.781.471-4.172.128-1.183.255-2.385.365-3.6a.7.7 0 00-.1-.561.675.675 0 00-.48-.289 4.303 4.303 0 00-2.156.045zM84.032 25.917v.702a.498.498 0 01-.096.36.478.478 0 01-.318.184h-.052c-.8.072-1.606.072-2.406 0a.938.938 0 01-.675-.325.981.981 0 01-.24-.723v-1.179a.915.915 0 01.17-.6.879.879 0 01.512-.34c.35-.113.719-.158 1.086-.131.36 0 .712.04 1.069.072a.976.976 0 01.584.272c.159.155.263.36.295.583.079.37.103.748.07 1.125zm-.339 0c0-.349-.034-.697-.101-1.04a.367.367 0 00-.167-.296 2.722 2.722 0 00-1.619-.18c.212.076.432.126.656.148.598.054 1.077.243 1.126.968.026.125.066.247.118.364l-.013.036z"/><path d="M8.36 36.447h.043v.027l-.044-.045v.018zM98.598 40.34l.014-.01-.018.01h.004z"/></g><defs><clipPath><path transform="translate(0 10)" d="M0 0h100v36H0z"/></clipPath></defs></symbol><symbol viewBox="0 0 16 16" id="menu-email" xmlns="http://www.w3.org/2000/svg"><g opacity=".5" clip-path="url(#clip0_577_988)"><path fill-rule="evenodd" clip-rule="evenodd" d="M14.402 1.6H1.6c-.6 0-1.124.313-1.398.773a.83.83 0 01.213.084l7.59 4.268 7.588-4.268a.831.831 0 01.208-.083 1.623 1.623 0 00-1.4-.774zm1.6 2.376L8.416 8.243a.846.846 0 01-.824 0L0 3.973V12.1c0 .825.72 1.5 1.6 1.5h12.801c.88 0 1.6-.675 1.6-1.5V3.976z"/></g><defs><clipPath><path d="M0 0h16v16H0z"/></clipPath></defs></symbol><symbol viewBox="0 0 16 16" id="menu-map" xmlns="http://www.w3.org/2000/svg"><path fill-rule="evenodd" clip-rule="evenodd" d="M8 15.333s6-4 6-8.667a6 6 0 10-12 0c0 4.667 6 8.667 6 8.667zm2-8.667a2 2 0 11-4 0 2 2 0 014 0z" opacity=".5"/></symbol><symbol viewBox="0 0 16 17" id="social-inst" xmlns="http://www.w3.org/2000/svg"><path d="M13.276.8H2.418C1.192.8.258 1.74.258 2.977v10.945c0 1.236.934 2.178 2.16 2.178h10.858c1.226 0 2.16-.942 2.16-2.178V2.977c0-1.236-.934-2.177-2.16-2.177zM7.847 13.04c2.51 0 4.554-2.001 4.554-4.414 0-.412-.059-.882-.175-1.235h1.284v6.237a.587.587 0 01-.584.589H2.768a.587.587 0 01-.584-.589V7.332h1.343a4.513 4.513 0 00-.175 1.236c-.058 2.471 1.985 4.472 4.495 4.472zm0-1.766c-1.635 0-2.919-1.294-2.919-2.883s1.284-2.883 2.92-2.883c1.634 0 2.918 1.294 2.918 2.883 0 1.648-1.284 2.883-2.919 2.883zm5.604-6.296a.65.65 0 01-.642.647h-1.634a.65.65 0 01-.643-.647V3.389a.65.65 0 01.643-.647h1.634a.65.65 0 01.643.647v1.589z"/></symbol><symbol viewBox="0 0 20 20" id="social-message" xmlns="http://www.w3.org/2000/svg"><path d="M9.915 18.1a8.8 8.8 0 01-2.273-.264.694.694 0 00-.56.085c-.829.489-1.668.968-2.506 1.438-.364.207-.476.132-.485-.282-.01-.874-.028-1.757-.028-2.631a.513.513 0 00-.214-.442C-.792 12.273-.466 5.44 4.5 2.169 8.396-.397 13.606.102 16.84 3.353c3.811 3.835 3.177 9.972-1.342 13.055-1.65 1.118-3.514 1.682-5.582 1.692zM8.37 9.923c.186-.01.288.122.4.244.587.62 1.174 1.232 1.762 1.852.298.31.391.32.67.01l3.877-4.136c.075-.075.224-.16.13-.291-.102-.15-.232-.02-.335.037-1.043.564-2.087 1.128-3.112 1.71-.326.18-.54.142-.792-.13-.56-.63-1.137-1.232-1.715-1.843-.317-.338-.4-.338-.727.01-1.295 1.372-2.59 2.753-3.886 4.125-.084.085-.242.17-.13.32.111.14.232-.01.335-.056 1.053-.564 2.106-1.138 3.16-1.711.12-.075.232-.15.363-.141z"/></symbol><symbol viewBox="0 0 19 17" id="social-telegram" xmlns="http://www.w3.org/2000/svg"><path d="M.985 8.336L5.09 9.88l1.6 5.19c.07.35.488.42.766.21l2.297-1.893c.208-.21.556-.21.835 0l4.105 3.016c.278.21.696.07.765-.281l3.062-14.73c.07-.35-.278-.7-.626-.56L.985 7.424c-.417.14-.417.771 0 .911zm5.497.772l8.072-4.98c.139-.07.278.14.139.21l-6.61 6.243c-.21.21-.418.49-.418.842l-.209 1.683c0 .21-.348.28-.417 0l-.835-3.086c-.209-.35-.07-.772.278-.912z"/></symbol><symbol viewBox="0 0 20 19" id="social-whatsapp" xmlns="http://www.w3.org/2000/svg"><path d="M16.936 2.856A9.274 9.274 0 0010.337.1C5.177.1.995 4.3.995 9.484c0 1.64.457 3.281 1.241 4.66L.93 19l4.965-1.313a9.491 9.491 0 004.442 1.116c5.162 0 9.343-4.2 9.343-9.385-.066-2.428-.98-4.79-2.744-6.562zm-2.09 9.975c-.197.525-1.111 1.05-1.569 1.116a3.636 3.636 0 01-1.437-.066c-.327-.131-.784-.263-1.307-.525-2.352-.985-3.854-3.347-3.985-3.544-.13-.131-.98-1.247-.98-2.428 0-1.181.588-1.706.784-1.969.196-.262.457-.262.653-.262h.458c.13 0 .326-.066.522.393.196.46.654 1.641.72 1.707a.42.42 0 010 .393c-.066.132-.132.263-.262.394s-.262.328-.327.394c-.13.131-.261.262-.13.46.13.262.587.984 1.306 1.64.915.787 1.633 1.05 1.895 1.181.261.132.392.066.522-.065.131-.132.588-.657.719-.92.13-.262.327-.196.523-.13.196.065 1.371.656 1.567.787.262.131.393.197.458.263.065.197.065.656-.13 1.18z"/></symbol></svg>