<svg width="300" height="44" fill="none" xmlns="http://www.w3.org/2000/svg"><g clip-path="url(#clip0_370_1486)" fill="#fff"><path d="M21.742 43.745c-3.923 0-7.564-.996-10.897-2.96a21.58 21.58 0 01-7.922-7.99C.974 29.428 0 25.778 0 21.848c0-3.956.974-7.58 2.897-10.924a21.895 21.895 0 017.923-7.962C14.178.995 17.819 0 21.742 0c3.05 0 5.948.613 8.743 1.863a22.414 22.414 0 017.358 5.283l-2.308 2.042a18.816 18.816 0 00-6.255-4.594 18.008 18.008 0 00-7.564-1.633c-3.384 0-6.512.842-9.384 2.526-2.846 1.685-5.127 3.982-6.82 6.866C3.82 15.237 2.974 18.4 2.974 21.82s.846 6.585 2.538 9.469c1.693 2.884 3.974 5.206 6.846 6.891 2.871 1.684 6 2.527 9.384 2.527 2.82 0 5.486-.613 8.025-1.838 2.538-1.225 4.692-2.935 6.512-5.13l2.384 1.838c-2.076 2.578-4.589 4.594-7.537 6.023a21.238 21.238 0 01-9.384 2.144zm55.02-20.342H51.379v19.856h-3.05V.535h3.05v19.856h25.383V.535h2.974v42.75h-2.974V23.403zm16.535 19.883V.537h2.974v42.75h-2.974zm57.802-.001V9.47l-19.024 27.027-19.281-27.104V43.26h-2.974V0l22.255 31.316L154.073 0v43.285h-2.974zm34.758.46c-3.923 0-7.564-.97-10.897-2.935-3.358-1.94-5.999-4.595-7.922-7.963-1.949-3.344-2.897-6.993-2.897-10.95 0-3.955.974-7.605 2.897-10.948a21.89 21.89 0 017.922-7.963c3.359-1.94 6.974-2.935 10.897-2.935 3.922 0 7.563.97 10.896 2.935 3.359 1.94 6 4.594 7.923 7.963 1.948 3.343 2.897 6.993 2.897 10.949 0 3.956-.974 7.605-2.897 10.949a21.9 21.9 0 01-7.923 7.962c-3.358 1.94-6.974 2.936-10.896 2.936zm0-40.657c-3.385 0-6.513.842-9.384 2.527a18.868 18.868 0 00-6.846 6.84c-1.692 2.883-2.538 6.023-2.538 9.443s.846 6.559 2.538 9.443a18.868 18.868 0 006.846 6.84c2.871 1.684 5.999 2.526 9.384 2.526 3.384 0 6.512-.842 9.384-2.526a18.547 18.547 0 006.794-6.84c1.666-2.884 2.512-6.023 2.512-9.443s-.846-6.56-2.512-9.444a18.94 18.94 0 00-6.794-6.84c-2.872-1.684-6-2.526-9.384-2.526zm34.359 5.462v34.735h-2.974V0l29.741 35.374V.536h2.974V44L220.216 8.55zm59.323 16.716L296.461.536h3.563L281 28.481v14.803h-2.974V28.482L258.977.535h3.563l16.999 24.731z"/></g><defs><clipPath id="clip0_370_1486"><path fill="#fff" d="M0 0h300v44H0z"/></clipPath></defs></svg>