<svg width="162" height="24" fill="none" xmlns="http://www.w3.org/2000/svg"><path d="M11.74 23.86a11.31 11.31 0 01-5.884-1.614 11.712 11.712 0 01-4.278-4.357A11.815 11.815 0 010 11.916C0 9.76.526 7.782 1.564 5.958a11.885 11.885 0 014.279-4.343A11.395 11.395 0 0111.74 0a11.3 11.3 0 014.72 1.016 12.108 12.108 0 013.974 2.882L19.19 5.012a10.167 10.167 0 00-3.378-2.506 9.642 9.642 0 00-4.084-.891c-1.828 0-3.517.46-5.068 1.378a10.352 10.352 0 00-3.682 3.745c-.914 1.573-1.371 3.3-1.371 5.165 0 1.865.457 3.591 1.37 5.164.914 1.573 2.147 2.84 3.697 3.759a9.762 9.762 0 005.068 1.378 9.75 9.75 0 004.333-1.002 10.397 10.397 0 003.517-2.798l1.287 1.002a11.792 11.792 0 01-4.07 3.285 11.374 11.374 0 01-5.067 1.17zm29.716-11.095H27.749v10.83h-1.647V.293h1.647v10.83h13.707V.293h1.606V23.61h-1.606V12.765zm8.927 10.845V.294h1.606v23.318h-1.606zm31.212 0V5.165L71.322 19.907 60.911 5.123v18.473h-1.606V0l12.017 17.081L83.202 0v23.61h-1.607zm18.765.25c-2.119 0-4.085-.529-5.885-1.6a11.475 11.475 0 01-4.278-4.344c-1.052-1.824-1.564-3.814-1.564-5.972 0-2.158.526-4.149 1.564-5.972a11.884 11.884 0 014.278-4.344 11.466 11.466 0 015.885-1.6c2.118 0 4.084.528 5.884 1.6a11.484 11.484 0 014.278 4.344c1.052 1.823 1.564 3.814 1.564 5.972 0 2.158-.526 4.148-1.564 5.972a11.898 11.898 0 01-4.278 4.343c-1.814 1.058-3.766 1.601-5.884 1.601zm0-22.176c-1.828 0-3.517.46-5.068 1.378a10.243 10.243 0 00-3.696 3.731c-.914 1.573-1.371 3.285-1.371 5.15 0 1.866.457 3.579 1.37 5.152a10.243 10.243 0 003.697 3.73 9.763 9.763 0 005.068 1.379c1.827 0 3.516-.46 5.067-1.378a10.07 10.07 0 003.669-3.731 10.186 10.186 0 001.356-5.151c0-1.866-.456-3.578-1.356-5.151a10.275 10.275 0 00-3.669-3.73 9.764 9.764 0 00-5.067-1.379zm18.559 2.98V23.61h-1.607V0l16.061 19.295V.292h1.606V24l-16.06-19.336zm32.036 9.118l9.138-13.49h1.924l-10.273 15.244v8.074h-1.606v-8.074L139.852.292h1.924l9.179 13.49z" fill="#5F49EA"/></svg>