<svg width="16" height="16" fill="none" xmlns="http://www.w3.org/2000/svg"><g opacity=".5" clip-path="url(#clip0_577_988)"><path fill-rule="evenodd" clip-rule="evenodd" d="M14.402 1.6H1.6c-.6 0-1.124.313-1.398.773a.83.83 0 01.213.084l7.59 4.268 7.588-4.268a.831.831 0 01.208-.083 1.623 1.623 0 00-1.4-.774zm1.6 2.376L8.416 8.243a.846.846 0 01-.824 0L0 3.973V12.1c0 .825.72 1.5 1.6 1.5h12.801c.88 0 1.6-.675 1.6-1.5V3.976z" fill="#fff"/></g><defs><clipPath id="clip0_577_988"><path fill="#fff" d="M0 0h16v16H0z"/></clipPath></defs></svg>