<svg width="20" height="20" fill="none" xmlns="http://www.w3.org/2000/svg"><path d="M9.915 18.1a8.8 8.8 0 01-2.273-.264.694.694 0 00-.56.085c-.829.489-1.668.968-2.506 1.438-.364.207-.476.132-.485-.282-.01-.874-.028-1.757-.028-2.631a.513.513 0 00-.214-.442C-.792 12.273-.466 5.44 4.5 2.169 8.396-.397 13.606.102 16.84 3.353c3.811 3.835 3.177 9.972-1.342 13.055-1.65 1.118-3.514 1.682-5.582 1.692zM8.37 9.923c.186-.01.288.122.4.244.587.62 1.174 1.232 1.762 1.852.298.31.391.32.67.01l3.877-4.136c.075-.075.224-.16.13-.291-.102-.15-.232-.02-.335.037-1.043.564-2.087 1.128-3.112 1.71-.326.18-.54.142-.792-.13-.56-.63-1.137-1.232-1.715-1.843-.317-.338-.4-.338-.727.01-1.295 1.372-2.59 2.753-3.886 4.125-.084.085-.242.17-.13.32.111.14.232-.01.335-.056 1.053-.564 2.106-1.138 3.16-1.711.12-.075.232-.15.363-.141z" fill="#5F49EA"/></svg>