<svg width="16" height="17" fill="none" xmlns="http://www.w3.org/2000/svg"><path d="M13.276.8H2.418C1.192.8.258 1.74.258 2.977v10.945c0 1.236.934 2.178 2.16 2.178h10.858c1.226 0 2.16-.942 2.16-2.178V2.977c0-1.236-.934-2.177-2.16-2.177zM7.847 13.04c2.51 0 4.554-2.001 4.554-4.414 0-.412-.059-.882-.175-1.235h1.284v6.237a.587.587 0 01-.584.589H2.768a.587.587 0 01-.584-.589V7.332h1.343a4.513 4.513 0 00-.175 1.236c-.058 2.471 1.985 4.472 4.495 4.472zm0-1.766c-1.635 0-2.919-1.294-2.919-2.883s1.284-2.883 2.92-2.883c1.634 0 2.918 1.294 2.918 2.883 0 1.648-1.284 2.883-2.919 2.883zm5.604-6.296a.65.65 0 01-.642.647h-1.634a.65.65 0 01-.643-.647V3.389a.65.65 0 01.643-.647h1.634a.65.65 0 01.643.647v1.589z" fill="#5F49EA"/></svg>