<svg width="20" height="19" fill="none" xmlns="http://www.w3.org/2000/svg"><path d="M16.936 2.856A9.274 9.274 0 0010.337.1C5.177.1.995 4.3.995 9.484c0 1.64.457 3.281 1.241 4.66L.93 19l4.965-1.313a9.491 9.491 0 004.442 1.116c5.162 0 9.343-4.2 9.343-9.385-.066-2.428-.98-4.79-2.744-6.562zm-2.09 9.975c-.197.525-1.111 1.05-1.569 1.116a3.636 3.636 0 01-1.437-.066c-.327-.131-.784-.263-1.307-.525-2.352-.985-3.854-3.347-3.985-3.544-.13-.131-.98-1.247-.98-2.428 0-1.181.588-1.706.784-1.969.196-.262.457-.262.653-.262h.458c.13 0 .326-.066.522.393.196.46.654 1.641.72 1.707a.42.42 0 010 .393c-.066.132-.132.263-.262.394s-.262.328-.327.394c-.13.131-.261.262-.13.46.13.262.587.984 1.306 1.64.915.787 1.633 1.05 1.895 1.181.261.132.392.066.522-.065.131-.132.588-.657.719-.92.13-.262.327-.196.523-.13.196.065 1.371.656 1.567.787.262.131.393.197.458.263.065.197.065.656-.13 1.18z" fill="#5F49EA"/></svg>