<svg width="300" height="44" viewBox="0 0 300 44" fill="none" xmlns="http://www.w3.org/2000/svg">
<g clip-path="url(#clip0_370_1486)">
<path d="M21.7417 43.7448C17.819 43.7448 14.1783 42.7494 10.8452 40.7842C7.48654 38.819 4.84574 36.1392 2.92283 32.7958C0.974276 29.4269 0 25.7773 0 21.8469C0 17.891 0.974276 14.2668 2.89719 10.9234C4.84574 7.58005 7.48654 4.92575 10.8196 2.96056C14.1783 0.99536 17.819 0 21.7417 0C24.7928 0 27.6899 0.612529 30.4846 1.86311C33.2792 3.11369 35.7405 4.87471 37.8429 7.14617L35.5354 9.18793C33.7663 7.22274 31.6896 5.69142 29.2796 4.59397C26.8695 3.49652 24.3569 2.96056 21.7161 2.96056C18.3318 2.96056 15.2038 3.80278 12.3323 5.48724C9.48637 7.17169 7.20451 9.46868 5.51235 12.3527C3.82019 15.2367 2.97411 18.4014 2.97411 21.8213C2.97411 25.2413 3.82019 28.406 5.51235 31.29C7.20451 34.174 9.48637 36.4965 12.3579 38.181C15.2295 39.8654 18.3574 40.7077 21.7417 40.7077C24.562 40.7077 27.2284 40.0951 29.7667 38.8701C32.3049 37.645 34.4586 35.935 36.279 33.7401L38.6634 35.5777C36.5866 38.1555 34.074 40.1717 31.1255 41.6009C28.1771 43.0302 25.0491 43.7448 21.7417 43.7448Z" fill="white"/>
<path d="M76.7616 23.4029H51.3791V43.2591H48.3281V20.3913V0.535156H51.3791V20.3913H76.7616V0.535156H79.7357V21.8461V43.2846H76.7616V23.4029Z" fill="white"/>
<path d="M93.2969 43.2865V0.537109H96.271V43.2865H93.2969Z" fill="white"/>
<path d="M151.099 43.2854V9.46868L132.075 36.4965L112.794 9.39211V43.2599H109.82V0L132.075 31.3155L154.073 0V43.2854H151.099Z" fill="white"/>
<path d="M185.857 43.7445C181.934 43.7445 178.293 42.7747 174.96 40.8095C171.602 38.8698 168.961 36.2155 167.038 32.8466C165.089 29.5032 164.141 25.8536 164.141 21.8977C164.141 17.9417 165.115 14.2921 167.038 10.9487C168.986 7.60531 171.627 4.95101 174.96 2.98582C178.319 1.04614 181.934 0.0507812 185.857 0.0507812C189.779 0.0507812 193.42 1.02062 196.753 2.98582C200.112 4.92549 202.753 7.57978 204.676 10.9487C206.624 14.2921 207.573 17.9417 207.573 21.8977C207.573 25.8536 206.599 29.5032 204.676 32.8466C202.727 36.19 200.086 38.8443 196.753 40.8095C193.395 42.7492 189.779 43.7445 185.857 43.7445ZM185.857 3.0879C182.472 3.0879 179.344 3.93013 176.473 5.61459C173.601 7.29904 171.319 9.5705 169.627 12.4545C167.935 15.3385 167.089 18.4777 167.089 21.8977C167.089 25.3176 167.935 28.4568 169.627 31.3408C171.319 34.2248 173.601 36.4963 176.473 38.1807C179.344 39.8652 182.472 40.7074 185.857 40.7074C189.241 40.7074 192.369 39.8652 195.241 38.1807C198.112 36.4963 200.368 34.2248 202.035 31.3408C203.701 28.4568 204.547 25.3176 204.547 21.8977C204.547 18.4777 203.701 15.3385 202.035 12.4545C200.368 9.59603 198.086 7.29904 195.241 5.61459C192.369 3.93013 189.241 3.0879 185.857 3.0879Z" fill="white"/>
<path d="M220.216 8.54988V43.2854H217.242V0L246.983 35.3736V0.535963H249.957V44L220.216 8.54988Z" fill="white"/>
<path d="M279.539 25.266L296.461 0.535156H300.024L281 28.4818V43.2846H278.026V28.4818L258.977 0.535156H262.54L279.539 25.266Z" fill="white"/>
</g>
<defs>
<clipPath id="clip0_370_1486">
<rect width="300" height="44" fill="white"/>
</clipPath>
</defs>
</svg>
