<svg width="162" height="24" viewBox="0 0 162 24" fill="none" xmlns="http://www.w3.org/2000/svg">
<path d="M11.7405 23.8608C9.62226 23.8608 7.65627 23.3179 5.85642 22.2459C4.04273 21.174 2.6167 19.7123 1.57833 17.8886C0.526109 16.051 0 14.0603 0 11.9165C0 9.7587 0.526109 7.7819 1.56448 5.95824C2.6167 4.13457 4.04273 2.68678 5.84258 1.61485C7.65627 0.542924 9.62226 0 11.7405 0C13.3881 0 14.9526 0.334107 16.4617 1.01624C17.9708 1.69838 19.2999 2.65893 20.4352 3.89791L19.1891 5.0116C18.2338 3.93968 17.1124 3.10441 15.811 2.5058C14.5095 1.90719 13.1527 1.61485 11.7267 1.61485C9.89915 1.61485 8.21007 2.07425 6.65943 2.99304C5.12264 3.91183 3.89044 5.16473 2.97667 6.73782C2.0629 8.31091 1.60602 10.0371 1.60602 11.9026C1.60602 13.768 2.0629 15.4942 2.97667 17.0673C3.89044 18.6404 5.12264 19.9072 6.67328 20.826C8.22391 21.7448 9.913 22.2042 11.7405 22.2042C13.2635 22.2042 14.7034 21.8701 16.074 21.2019C17.4447 20.5336 18.6076 19.6009 19.5906 18.4037L20.8782 19.406C19.7568 20.8121 18.4 21.9118 16.8078 22.6914C15.2156 23.471 13.5265 23.8608 11.7405 23.8608Z" fill="#5F49EA"/>
<path d="M41.4556 12.7653H27.7491V23.5959H26.1016V11.1226V0.291992H27.7491V11.1226H41.4556V0.291992H43.0617V11.9161V23.6099H41.4556V12.7653Z" fill="#5F49EA"/>
<path d="M50.3828 23.6108V0.292969H51.9888V23.6108H50.3828Z" fill="#5F49EA"/>
<path d="M81.5951 23.6102V5.16473L71.3221 19.9072L60.9107 5.12297V23.5963H59.3047V0L71.3221 17.0812L83.2011 0V23.6102H81.5951Z" fill="#5F49EA"/>
<path d="M100.36 23.8603C98.2412 23.8603 96.2752 23.3313 94.4754 22.2594C92.6617 21.2014 91.2357 19.7536 90.1973 17.916C89.1451 16.0923 88.6328 14.1016 88.6328 11.9438C88.6328 9.78605 89.1589 7.79533 90.1973 5.97166C91.2495 4.14799 92.6755 2.7002 94.4754 1.62827C96.2891 0.570267 98.2412 0.0273438 100.36 0.0273438C102.478 0.0273438 104.444 0.556346 106.244 1.62827C108.057 2.68628 109.483 4.13407 110.522 5.97166C111.574 7.79533 112.086 9.78605 112.086 11.9438C112.086 14.1016 111.56 16.0923 110.522 17.916C109.469 19.7396 108.043 21.1874 106.244 22.2594C104.43 23.3174 102.478 23.8603 100.36 23.8603ZM100.36 1.68396C98.532 1.68396 96.8429 2.14335 95.2922 3.06215C93.7416 3.98094 92.5094 5.21992 91.5956 6.79301C90.6819 8.36609 90.225 10.0784 90.225 11.9438C90.225 13.8092 90.6819 15.5215 91.5956 17.0946C92.5094 18.6677 93.7416 19.9067 95.2922 20.8255C96.8429 21.7443 98.532 22.2037 100.36 22.2037C102.187 22.2037 103.876 21.7443 105.427 20.8255C106.977 19.9067 108.196 18.6677 109.096 17.0946C109.996 15.5215 110.452 13.8092 110.452 11.9438C110.452 10.0784 109.996 8.36609 109.096 6.79301C108.196 5.23384 106.964 3.98094 105.427 3.06215C103.876 2.14335 102.187 1.68396 100.36 1.68396Z" fill="#5F49EA"/>
<path d="M118.919 4.66357V23.6102H117.312V0L133.373 19.2947V0.292343H134.979V24L118.919 4.66357Z" fill="#5F49EA"/>
<path d="M150.955 13.7816L160.093 0.291992H162.017L151.744 15.5356V23.6099H150.138V15.5356L139.852 0.291992H141.776L150.955 13.7816Z" fill="#5F49EA"/>
</svg>
