<svg width="100" height="60" viewBox="0 0 100 60" fill="none" xmlns="http://www.w3.org/2000/svg">
<rect width="100" height="60" fill="#F0F0F0"/>
<g clip-path="url(#clip0_370_1742)">
<path d="M50.3227 26.9021C49.2671 26.2316 48.2335 25.5206 47.1427 24.8951C42.7053 22.3189 37.864 20.5511 32.835 19.6706C30.3009 19.2211 27.736 18.9773 25.1644 18.9416C20.8831 18.8438 16.6085 19.3403 12.4576 20.4176C12.435 20.4288 12.4102 20.4346 12.3851 20.4346C12.3599 20.4346 12.3351 20.4288 12.3125 20.4176C15.0746 17.2316 18.6197 15.9581 22.6969 15.9536C21.3038 15.5277 19.8682 15.2636 18.4174 15.1661C16.941 15.011 15.4494 15.1392 14.019 15.5441C14.1324 15.3635 14.2824 15.21 14.4589 15.0941C15.6716 14.2108 17.0466 13.5878 18.5009 13.2626C19.887 12.8979 21.3011 12.6555 22.7277 12.5381C22.7866 12.5427 22.8457 12.535 22.9016 12.5157C22.9575 12.4964 23.0091 12.4657 23.0532 12.4256C21.0168 11.5256 18.8836 11.5256 16.746 11.5256C17.3049 11.2989 17.8817 11.1212 18.4701 10.9946C21.3977 10.2432 24.4126 9.90859 27.4295 10.0001C32.8306 10.2251 37.7655 11.8001 42.0451 15.2696C44.8554 17.5844 47.1763 20.4596 48.8669 23.7206C49.429 24.7357 49.9241 25.788 50.3491 26.8706L50.3227 26.9021ZM46.5446 22.5596L46.6369 22.6271C46.6765 22.5686 46.6369 22.5281 46.6017 22.4966C46.5182 22.3886 46.4346 22.2716 46.3422 22.1681C45.496 21.2056 44.5864 20.3034 43.6197 19.4681C42.02 17.9979 40.1576 16.858 38.135 16.1111C36.2835 15.4956 34.3838 15.0439 32.4568 14.7611C31.6709 14.5994 30.8699 14.527 30.0685 14.5451C30.1195 14.5693 30.1725 14.5888 30.2268 14.6036C33.2338 15.2234 36.1474 16.2478 38.8915 17.6501C41.6007 19.0131 44.1653 20.6583 46.5446 22.5596V22.5596ZM42.784 17.9741C41.658 15.9716 37.009 13.7306 34.8319 14.1356C37.7189 14.8228 40.4298 16.1313 42.784 17.9741ZM42.8544 17.9741C42.8544 17.9741 42.8544 18.0101 42.8544 18.0236C42.8601 18.045 42.8725 18.0639 42.8896 18.0776L42.9247 17.9966L42.8544 17.9741Z" fill="#67647D"/>
<path d="M45.823 30.0434C47.4547 30.1469 49.0909 30.2369 50.7315 30.3539C50.9878 30.3928 51.2497 30.3583 51.488 30.2542C51.7263 30.1502 51.9319 29.9806 52.0818 29.7644C53.0406 28.4684 54.039 27.2039 55.0022 25.9259C55.1276 25.7133 55.3139 25.5453 55.5358 25.4447C55.7576 25.344 56.0044 25.3157 56.2426 25.3634C56.4705 25.4151 56.6772 25.5375 56.8346 25.7139C56.9921 25.8902 57.0925 26.112 57.1222 26.3489C57.5269 27.9554 57.9491 29.5574 58.3494 31.1639C58.3998 31.3861 58.5083 31.5901 58.6632 31.7541C58.8182 31.9182 59.0137 32.0361 59.229 32.0954C60.7816 32.6624 62.3078 33.2474 63.878 33.8099C64.0968 33.8692 64.2929 33.995 64.4402 34.1708C64.5875 34.3467 64.6792 34.5641 64.703 34.7944C64.7268 35.0247 64.6818 35.2569 64.5737 35.4604C64.4657 35.6639 64.2998 35.829 64.098 35.9339C62.7345 36.8339 61.3842 37.7069 60.0119 38.5934C59.792 38.7214 59.6105 38.9087 59.4873 39.1347C59.364 39.3608 59.3036 39.6171 59.3126 39.8759C59.2818 41.5364 59.2202 43.1969 59.1718 44.8574C59.1719 45.0098 59.1421 45.1606 59.0844 45.3011C59.0266 45.4416 58.9419 45.5688 58.8354 45.6753C58.7288 45.7818 58.6025 45.8654 58.4639 45.9212C58.3253 45.9771 58.1772 46.004 58.0283 46.0004C57.7552 46.0009 57.4911 45.9001 57.285 45.7169C56.0227 44.6549 54.7471 43.6019 53.4892 42.5309C53.3159 42.3643 53.1017 42.2488 52.8694 42.1965C52.6372 42.1442 52.3954 42.1571 52.1697 42.2339C50.6127 42.7109 49.0469 43.1339 47.4855 43.6154C47.2729 43.7035 47.039 43.7229 46.8153 43.6708C46.5917 43.6187 46.389 43.4976 46.2346 43.324C46.0803 43.1504 45.9816 42.9325 45.9521 42.6998C45.9225 42.467 45.9634 42.2306 46.0693 42.0224C46.6455 40.5059 47.2216 38.9759 47.8286 37.4639C47.9367 37.2281 47.978 36.966 47.9477 36.7075C47.9173 36.4489 47.8166 36.2043 47.6571 36.0014C46.7202 34.6289 45.8142 33.2384 44.8949 31.8614C44.7745 31.6889 44.7035 31.4855 44.6899 31.274C44.6763 31.0626 44.7207 30.8514 44.8181 30.6643C44.9154 30.4772 45.0619 30.3217 45.241 30.2152C45.4201 30.1086 45.6247 30.0554 45.8318 30.0614L45.823 30.0434ZM53.0758 34.6109H52.9174C52.7767 34.6109 52.592 34.5209 52.4996 34.6739C52.4072 34.8269 52.5568 34.9979 52.6579 35.1239C52.8104 35.2767 52.9035 35.4809 52.9196 35.6987C52.9358 35.9164 52.8741 36.1328 52.7459 36.3074C52.6887 36.4244 52.592 36.5639 52.7195 36.6944C52.8471 36.8249 52.9614 36.6944 53.0714 36.6944C53.4496 36.5729 53.8103 36.4334 54.1446 36.8249C54.2589 36.9554 54.3997 37.2029 54.6196 37.0904C54.8395 36.9779 54.7471 36.7214 54.7339 36.5414C54.7091 36.3739 54.742 36.2027 54.8271 36.0574C54.9122 35.912 55.0441 35.8015 55.2002 35.7449C55.2515 35.7176 55.3014 35.6875 55.3497 35.6549C55.4421 35.5784 55.6004 35.5424 55.5828 35.3804C55.5652 35.2184 55.4025 35.1959 55.2925 35.1734C55.069 35.1548 54.86 35.0528 54.7051 34.8869C54.5503 34.721 54.4603 34.5027 54.4525 34.2734C54.4525 34.1474 54.4525 33.9584 54.2721 33.9179C54.0918 33.8774 54.0258 34.0709 53.9467 34.1834C53.7091 34.4579 53.4936 34.7504 53.0758 34.6109V34.6109Z" fill="#67647D"/>
<path d="M8.35668 36.447C8.36039 35.7892 8.30444 35.1324 8.18955 34.485C7.96523 32.685 7.69694 30.849 7.48142 29.0265C7.38955 28.3586 7.4239 27.6788 7.58258 27.024C7.63466 26.74 7.7765 26.4813 7.9863 26.2878C8.19609 26.0943 8.46222 25.9767 8.74373 25.953C9.32807 25.8811 9.91873 25.8811 10.5031 25.953C11.2596 26.052 11.6598 26.5965 11.8226 27.5505C11.9393 28.5566 11.9037 29.5751 11.717 30.57C11.4808 32.2521 11.4116 33.9542 11.5103 35.6505C11.5499 36.618 11.5982 37.581 11.6686 38.544C11.7962 40.4205 12.0029 42.297 12.1964 44.1555C12.2756 44.898 12.0733 45.24 11.3519 45.402C10.9934 45.4871 10.6285 45.5413 10.2612 45.564C9.63219 45.6135 9.18796 45.2715 8.88448 44.5965C7.76291 42.1575 6.72931 39.6735 5.4538 37.311C5.01397 36.528 4.57414 35.754 4.1343 34.998C4.08527 34.9083 4.00765 34.8384 3.91439 34.8C3.95397 35.223 3.98916 35.6505 4.02435 36.078C4.26907 38.3099 4.37338 40.5555 4.33663 42.801C4.28825 44.1015 4.20468 44.205 2.98635 44.4975C2.42278 44.6592 1.83843 44.732 1.25341 44.7135C0.219808 44.6505 -0.198031 44.043 0.0878588 43.0395C0.40205 41.6629 0.565792 40.2547 0.576071 38.841C0.650843 37.239 0.646444 35.637 0.598063 34.0395C0.523292 31.74 0.505698 29.445 0.307774 27.159C0.282236 27.0236 0.299604 26.8834 0.357351 26.7587C0.415098 26.6341 0.510211 26.5316 0.628851 26.466C1.45301 26.034 2.34733 25.7595 3.26784 25.656C3.65929 25.6155 3.81763 25.791 3.91879 26.232C4.24866 27.636 4.59173 29.04 4.90841 30.453C5.31439 31.9527 6.00155 33.3573 6.93163 34.5885C7.34811 35.2542 7.82525 35.878 8.35668 36.4515L8.38747 36.4965V36.4695L8.35668 36.447ZM1.64486 26.9565C2.04951 26.835 2.45855 26.7135 2.86319 26.5785C3.06552 26.511 3.14908 26.547 3.17987 26.7765C3.369 27.7035 3.58012 28.635 3.78684 29.562C3.94603 30.3402 4.15018 31.1081 4.3982 31.8615C4.41577 31.7573 4.41577 31.6508 4.3982 31.5465C4.1343 29.7735 3.86161 28.0005 3.60651 26.2275C3.57132 25.9575 3.45257 25.9485 3.26344 26.0205C2.67372 26.2314 2.12557 26.5484 1.64486 26.9565V26.9565ZM9.73335 44.457C9.92248 44.52 10.1116 44.601 10.3095 44.6505C11.22 44.862 11.607 44.484 11.4663 43.5435C11.4683 43.5211 11.4683 43.4985 11.4663 43.476C11.28 42.6203 10.9591 41.8011 10.5163 41.0505C10.4811 40.983 10.4547 40.893 10.3447 40.9155C10.3338 40.9339 10.3281 40.9549 10.3281 40.9763C10.3281 40.9977 10.3338 41.0187 10.3447 41.037C10.5928 41.8817 10.7651 42.7478 10.8593 43.6245C10.9077 44.0745 10.8109 44.1825 10.4195 44.2995C10.1971 44.3366 9.97683 44.3862 9.75974 44.448L9.73335 44.457ZM1.40735 44.0655C2.0689 44.1855 2.75055 44.0894 3.3558 43.791C3.47762 43.7373 3.58511 43.6546 3.66927 43.5496C3.75344 43.4447 3.81185 43.3208 3.83962 43.188C3.99714 42.1183 4.01636 41.0319 3.8968 39.957C3.8112 40.8635 3.67907 41.7648 3.50095 42.657C3.46201 42.8696 3.37154 43.0687 3.23783 43.2362C3.10411 43.4037 2.93144 43.5341 2.73564 43.6155C2.30297 43.7951 1.85926 43.9454 1.40735 44.0655V44.0655Z" fill="#67647D"/>
<path d="M35.6811 40.659C36.0594 39.183 36.4332 37.77 36.7939 36.3435C37.4405 33.783 38.1134 31.2315 38.6456 28.635C38.76 28.059 38.7951 27.4695 38.8963 26.889C39.0107 26.205 39.2614 25.944 39.9431 25.8855C40.8532 25.7954 41.7709 25.9392 42.6129 26.304C42.7387 26.3352 42.8562 26.3945 42.9571 26.4775C43.0579 26.5605 43.1396 26.6653 43.1963 26.7844C43.253 26.9035 43.2834 27.0338 43.2852 27.1663C43.2869 27.2987 43.2601 27.4299 43.2066 27.5505C42.1452 32.2935 41.0852 37.038 40.0267 41.784C39.9871 41.955 39.9211 42.1215 39.8859 42.2925C39.7655 42.9666 39.4314 43.5813 38.9354 44.0417C38.4393 44.5021 37.8088 44.7825 37.1414 44.8395C35.8802 45.0877 34.5779 45.001 33.3588 44.5875C32.8159 44.4083 32.3409 44.0608 31.9997 43.593C31.8501 43.3712 31.7523 43.1172 31.7139 42.8505C31.0981 39.1605 30.4882 35.472 29.8842 31.785C29.6598 30.435 29.4443 29.04 29.2508 27.6675C29.2252 27.4797 29.2149 27.2901 29.22 27.1005C29.22 26.5425 29.2992 26.403 29.8226 26.295C30.5221 26.096 31.2481 26.0125 31.9734 26.0475C32.2287 26.0621 32.4717 26.1648 32.6626 26.3389C32.8536 26.513 32.9812 26.7482 33.0246 27.006C33.4952 29.3955 33.9746 31.785 34.4408 34.1745C34.8499 36.294 35.2809 38.418 35.6152 40.551C35.5976 40.569 35.6284 40.6005 35.6811 40.659ZM32.0657 40.8795C31.9597 41.2504 31.9341 41.6405 31.991 42.0225C32.0075 42.4308 32.1416 42.8251 32.3763 43.1557C32.6111 43.4863 32.936 43.7387 33.3104 43.881C34.3528 44.268 35.4436 44.178 36.6092 44.0835C35.9274 43.8765 35.3381 43.6875 34.7399 43.521C34.1241 43.3715 33.5569 43.0605 33.0942 42.6186C32.6315 42.1768 32.2892 41.6193 32.1009 41.001C32.1097 40.9605 32.1097 40.92 32.0657 40.8795V40.8795ZM41.3462 27.2715C40.9942 26.9019 40.5638 26.6201 40.0882 26.448C39.798 26.3355 39.6748 26.448 39.6484 26.7405C39.5516 27.357 39.4285 27.9645 39.3097 28.5765C39.125 29.5665 38.9315 30.561 38.7336 31.605C38.8367 31.4967 38.9082 31.3611 38.9403 31.2135C39.3801 29.949 39.7364 28.662 40.097 27.3705C40.163 27.1275 40.2686 27.078 40.4885 27.123C40.7436 27.1815 41.0383 27.222 41.3462 27.2715Z" fill="#67647D"/>
<path d="M27.5398 33.1571C27.4563 36.2666 26.6602 39.1601 24.8349 41.6801C23.8947 43.0706 22.5081 44.0801 20.916 44.5331C19.9968 44.7752 19.034 44.786 18.1099 44.5646C16.7332 44.2406 16.0251 43.1696 15.5105 41.9456C14.9201 40.4318 14.5454 38.839 14.3977 37.2161C14.2388 36.0512 14.1477 34.8776 14.125 33.7016C14.125 29.9936 15.8579 27.4016 19.2314 26.0516C20.1705 25.6295 21.1796 25.3943 22.2047 25.3586C23.0521 25.3319 23.8896 25.5504 24.621 25.9891C25.3524 26.4277 25.9479 27.0686 26.3391 27.8381C26.9955 29.0895 27.381 30.4708 27.4695 31.8881C27.5281 32.3083 27.5516 32.7329 27.5398 33.1571V33.1571ZM23.8233 33.6071C23.8359 33.1807 23.8064 32.754 23.7353 32.3336C23.5506 31.2671 23.1811 30.2816 22.2531 29.6741C21.0655 28.9091 20.2694 28.8551 19.205 29.7011C18.363 30.3919 17.7917 31.3693 17.5953 32.4551C17.3773 33.7325 17.4389 35.0435 17.7756 36.2936C17.9212 37.2149 18.2505 38.0957 18.7432 38.8811C18.8696 39.1017 19.0391 39.2932 19.2411 39.4438C19.4431 39.5943 19.6733 39.7005 19.9173 39.7558C20.1613 39.8112 20.4138 39.8144 20.659 39.7653C20.9043 39.7162 21.137 39.6159 21.3426 39.4706C22.0113 39.0658 22.5612 38.4845 22.9348 37.7876C23.593 36.5012 23.9 35.057 23.8233 33.6071V33.6071ZM26.1852 32.0501C26.5062 28.7831 24.5446 27.1406 22.5961 27.2891C23.5542 27.6819 24.3732 28.3629 24.9448 29.2421C25.4941 30.1089 25.9122 31.0556 26.1852 32.0501V32.0501ZM19.9923 40.4741V40.4336L19.5173 40.3481C19.1 40.3102 18.702 40.1512 18.3701 39.8897C18.0381 39.6282 17.7861 39.2752 17.6436 38.8721C17.5205 38.5391 17.3885 38.2151 17.283 37.8821C17.129 37.3961 16.9927 36.9101 16.8432 36.3656C16.7375 37.2307 16.7553 38.1068 16.8959 38.9666C17.0895 40.1501 17.8636 40.8026 18.9192 40.6451C19.2666 40.6001 19.6361 40.5371 19.9923 40.4741Z" fill="#67647D"/>
<path d="M91.2105 25.6245C92.2044 25.5693 93.2005 25.6756 94.1618 25.9395C95.9661 26.5841 97.4784 27.8802 98.415 29.5845C99.4301 31.3092 99.9725 33.2818 99.9852 35.295C100.044 36.6157 99.8958 37.9375 99.5453 39.21C98.7448 41.955 96.9591 43.6425 94.2674 44.3715C92.6084 44.7422 90.9014 44.8334 89.2137 44.6415C88.9387 44.6479 88.672 44.5451 88.4694 44.3546C88.2669 44.1642 88.1443 43.9009 88.1273 43.62C87.9084 42.4876 87.7965 41.3363 87.793 40.182C87.6963 37.482 87.991 34.818 87.9558 32.1315C87.925 30.129 87.9074 28.1265 87.8634 26.1195C87.8634 25.8675 87.8898 25.7505 88.1845 25.7325C89.0949 25.683 90.0142 25.6245 91.2105 25.6245ZM93.4845 44.2005C93.722 44.1555 93.9595 44.124 94.1926 44.0655C95.48 43.8381 96.6674 43.2095 97.5925 42.2655C98.1158 41.7494 98.4655 41.0766 98.5909 40.344V40.344C98.2478 40.794 97.8916 41.244 97.5573 41.694C97.0556 42.4179 96.3738 42.9912 95.5825 43.3545C94.8978 43.6555 94.1921 43.9037 93.4713 44.097C93.3085 44.16 93.1062 44.097 92.9127 44.3175L93.4845 44.2005ZM96.88 35.2005C96.8807 34.7914 96.8438 34.3831 96.77 33.981C96.2642 31.101 94.131 29.517 91.6372 29.031C91.4085 28.986 91.3645 29.0715 91.3689 29.283C91.3953 31.182 91.4187 33.0795 91.4392 34.9755C91.4392 36.906 91.4876 38.841 91.5052 40.7715C91.5052 41.0235 91.58 41.0685 91.8087 41.0055C92.8003 40.7334 93.7401 40.2922 94.5884 39.7005C95.3205 39.2198 95.9171 38.5516 96.319 37.7623C96.721 36.9729 96.9143 36.0899 96.88 35.2005ZM90.929 26.268C90.3881 26.0375 89.8031 25.9359 89.2181 25.971C88.5584 26.025 88.3648 26.241 88.3736 26.907C88.3736 28.9365 88.4088 30.957 88.4484 32.982C88.4167 33.4622 88.4448 33.9446 88.532 34.4175C88.5935 33.324 88.6683 32.2395 88.7123 31.1685C88.8113 30.0443 88.8113 28.9133 88.7123 27.789C88.6938 27.5421 88.7086 27.2938 88.7563 27.051C88.8179 26.601 88.9366 26.493 89.372 26.439C89.9042 26.367 90.4188 26.3175 90.929 26.268Z" fill="#67647D"/>
<path d="M74.2181 44.7985H73.0613C72.9537 44.8155 72.8436 44.8055 72.7405 44.7693C72.6375 44.7332 72.5445 44.672 72.4697 44.591C72.3948 44.51 72.3403 44.4116 72.3109 44.3043C72.2814 44.197 72.2778 44.084 72.3004 43.975C72.34 43.246 72.3884 42.5215 72.3796 41.7925C72.3944 40.8778 72.2159 39.9705 71.8562 39.133C71.6734 38.6837 71.3986 38.2798 71.0503 37.9484C70.7021 37.6169 70.2885 37.3656 69.8374 37.2115C69.5251 37.1035 69.3975 37.2115 69.3975 37.504C69.3448 38.3281 69.3448 39.1549 69.3975 39.979C69.5221 41.2682 69.5368 42.5661 69.4415 43.858C69.3668 44.4655 69.2084 44.6095 68.6498 44.758C67.6206 45.0364 66.5367 45.024 65.5138 44.722C65.3809 44.7051 65.26 44.635 65.1775 44.527C65.0951 44.419 65.0579 44.282 65.074 44.146V44.146C65.0921 43.3091 65.1879 42.4759 65.3599 41.6575C65.8043 39.1161 65.9841 36.5337 65.8965 33.9535C65.8481 31.834 65.7909 29.7145 65.7382 27.595C65.7204 27.312 65.7471 27.0278 65.8173 26.7535C65.8843 26.4884 66.0329 26.2524 66.2413 26.0805C66.4497 25.9087 66.7066 25.8101 66.9741 25.7995C67.6017 25.714 68.2377 25.714 68.8654 25.7995C69.5647 25.9255 69.789 26.2495 69.7098 26.947C69.5427 28.459 69.4547 29.971 69.2216 31.474C69.1864 31.699 69.0017 32.0095 69.2216 32.131C69.4415 32.2525 69.6395 31.9735 69.8418 31.8385C70.4155 31.4234 70.8709 30.8596 71.1613 30.205C71.6145 29.2778 72.0054 28.3201 72.3312 27.3385C72.6215 26.5465 72.947 26.3125 73.7739 26.3755C74.2137 26.4115 74.6535 26.461 75.1197 26.5195C75.586 26.578 75.8103 26.8885 75.7619 27.4195C75.4892 30.2185 74.0026 32.1715 71.7155 33.625C71.5879 33.706 71.3592 33.7555 71.3768 33.9175C71.3944 34.0795 71.6231 34.057 71.755 34.1155C73.4304 34.8727 74.7686 36.2435 75.5068 37.9585C76.3014 39.6939 76.687 41.5959 76.6328 43.5115C76.6328 44.3665 76.3161 44.6905 75.4496 44.7445C75.0362 44.776 74.6183 44.7445 74.2049 44.7445L74.2181 44.7985ZM75.1857 40.933C75.0254 41.6028 74.8227 42.2611 74.5788 42.904C74.4437 43.3283 74.208 43.7117 73.8926 44.02C73.8333 44.0776 73.7634 44.1226 73.6869 44.1524C73.6105 44.1822 73.5291 44.1963 73.4473 44.1938C73.3655 44.1913 73.2851 44.1722 73.2105 44.1378C73.136 44.1033 73.0688 44.0541 73.013 43.993C72.9804 43.9611 72.9523 43.9247 72.9294 43.885C72.8051 43.6621 72.6963 43.4305 72.6039 43.192C72.5708 43.4795 72.5978 43.7709 72.6831 44.047C72.7074 44.1544 72.7522 44.2558 72.815 44.3454C72.8777 44.435 72.9571 44.511 73.0487 44.5691C73.1402 44.6273 73.2421 44.6663 73.3484 44.684C73.4548 44.7018 73.5635 44.6978 73.6683 44.6725L73.7871 44.6365C74.0175 44.5762 74.2306 44.4607 74.4088 44.2995C74.587 44.1383 74.7251 43.9361 74.8119 43.7095C75.1281 42.8217 75.2571 41.8754 75.1901 40.933H75.1857ZM74.3632 30.25C74.7834 29.7809 75.0854 29.214 75.2429 28.5985C75.4848 27.64 74.957 26.947 73.9586 26.902C75.0582 27.6355 75.1593 27.937 74.7459 29.242C74.7195 29.3365 74.6887 29.4265 74.6579 29.512C74.5436 29.7775 74.4512 30.007 74.3632 30.25V30.25ZM73.7607 26.875H73.6375H73.7607Z" fill="#67647D"/>
<path d="M79.7888 31.2315C79.7782 30.7467 79.7914 30.2615 79.8284 29.778C79.9692 28.878 80.4398 28.167 81.5394 28.23C82.1385 28.2104 82.7383 28.236 83.3339 28.3065C83.457 28.3128 83.5776 28.3441 83.6888 28.3986C83.7999 28.4532 83.8993 28.5298 83.9812 28.624C84.0631 28.7183 84.1258 28.8283 84.1657 28.9476C84.2056 29.067 84.2219 29.1932 84.2135 29.319C84.2487 30.4125 84.2091 31.5072 84.0948 32.595C84.0112 33.8595 83.932 35.133 83.9276 36.402C83.9276 38.1345 83.9012 39.867 84.0112 41.595C84.0508 42.207 84.086 42.819 84.0684 43.431C84.0882 43.62 84.0688 43.8112 84.0114 43.992C83.954 44.1728 83.86 44.3391 83.7354 44.4802C83.6109 44.6212 83.4586 44.7337 83.2886 44.8104C83.1186 44.887 82.9347 44.9261 82.7489 44.925C81.8889 45.0159 81.021 44.9917 80.1671 44.853C79.9936 44.8374 79.8308 44.7607 79.7065 44.6359C79.5822 44.5112 79.504 44.3462 79.4853 44.169C79.3409 43.4287 79.3009 42.671 79.3666 41.919C79.4633 40.5105 79.5337 39.102 79.5689 37.689C79.6129 36.168 79.6481 34.6515 79.7185 33.135C79.7492 32.568 79.7492 32.001 79.7888 31.2315ZM80.9764 29.688L82.6697 30.0255C83.2019 30.1335 83.3515 30.3225 83.1623 30.8805C83.0205 31.3406 82.9478 31.8201 82.9468 32.3025C82.9204 33.2025 82.8632 34.0755 82.8457 35.0025C82.8457 36.1455 82.8457 37.284 82.8457 38.499C82.8457 38.3775 82.872 38.319 82.8764 38.265C83.0348 36.8745 83.1975 35.484 83.3471 34.0935C83.4746 32.91 83.6022 31.7085 83.7121 30.4935C83.736 30.3981 83.7395 30.2985 83.7224 30.2016C83.7052 30.1047 83.6678 30.0127 83.6126 29.9319C83.5575 29.8512 83.486 29.7836 83.4029 29.7337C83.3199 29.6838 83.2273 29.6529 83.1315 29.643C82.4206 29.4749 81.68 29.4904 80.9764 29.688V29.688Z" fill="#67647D"/>
<path d="M84.0318 25.917V26.619C84.0398 26.6826 84.0354 26.7471 84.019 26.8089C84.0025 26.8708 83.9742 26.9287 83.9358 26.9793C83.8974 27.0299 83.8495 27.0722 83.7951 27.1038C83.7406 27.1354 83.6805 27.1557 83.6183 27.1635H83.5656C82.7651 27.2355 81.9601 27.2355 81.1597 27.1635C81.0316 27.1584 80.9058 27.127 80.7898 27.0711C80.6738 27.0152 80.57 26.9359 80.4846 26.838C80.3992 26.7402 80.334 26.6257 80.2928 26.5015C80.2516 26.3773 80.2353 26.2458 80.2448 26.115V24.936C80.2301 24.7218 80.2908 24.5093 80.4158 24.3368C80.5408 24.1644 80.722 24.0433 80.9266 23.9955C81.2775 23.8825 81.646 23.8382 82.013 23.865C82.3736 23.865 82.7255 23.9055 83.0817 23.937C83.3006 23.9587 83.5061 24.0546 83.6655 24.2095C83.8249 24.3645 83.9291 24.5695 83.9614 24.792C84.0398 25.1613 84.0636 25.5405 84.0318 25.917V25.917ZM83.6931 25.917C83.6926 25.568 83.6587 25.2198 83.592 24.8775C83.5904 24.8177 83.5743 24.7592 83.5451 24.7074C83.516 24.6555 83.4746 24.6119 83.4248 24.5805C82.9149 24.3566 82.3512 24.2939 81.8062 24.4005C82.018 24.477 82.2381 24.5269 82.4616 24.549C83.0598 24.603 83.5392 24.792 83.5876 25.5165C83.6138 25.6421 83.6536 25.7644 83.7063 25.881L83.6931 25.917Z" fill="#67647D"/>
<path d="M8.35938 36.4467H8.40336V36.4737L8.35938 36.4287V36.4467Z" fill="#67647D"/>
<path d="M98.5982 40.3391L98.6117 40.3301L98.5938 40.3391H98.5982Z" fill="#67647D"/>
</g>
<defs>
<clipPath id="clip0_370_1742">
<rect width="100" height="36" fill="white" transform="translate(0 10)"/>
</clipPath>
</defs>
</svg>
