<svg width="16" height="16" viewBox="0 0 16 16" fill="none" xmlns="http://www.w3.org/2000/svg">
<g opacity="0.5" clip-path="url(#clip0_577_988)">
<path fill-rule="evenodd" clip-rule="evenodd" d="M14.4015 1.59961H1.60016C1.00082 1.59961 0.475686 1.91265 0.201643 2.37292C0.274932 2.39053 0.346772 2.41825 0.414966 2.4566L8.00414 6.72508L15.5933 2.4566C15.6597 2.41926 15.7296 2.392 15.8008 2.37434C15.527 1.91329 15.0014 1.59961 14.4015 1.59961ZM16.0016 3.97624L8.41578 8.24284C8.16241 8.38535 7.84587 8.38535 7.5925 8.24284L0 3.97249V12.0996C0 12.9246 0.720073 13.5996 1.60016 13.5996H14.4015C15.2816 13.5996 16.0016 12.9246 16.0016 12.0996V3.97624Z" fill="white"/>
</g>
<defs>
<clipPath id="clip0_577_988">
<rect width="16" height="16" fill="white"/>
</clipPath>
</defs>
</svg>
