<svg width="16" height="16" viewBox="0 0 16 16" fill="none" xmlns="http://www.w3.org/2000/svg">
<g opacity="0.5">
<path fill-rule="evenodd" clip-rule="evenodd" d="M8 15.3327C8 15.3327 14 11.3327 14 6.66602C14 5.07472 13.3679 3.54859 12.2426 2.42337C11.1174 1.29816 9.5913 0.666016 8 0.666016C6.4087 0.666016 4.88258 1.29816 3.75736 2.42337C2.63214 3.54859 2 5.07472 2 6.66602C2 11.3327 8 15.3327 8 15.3327ZM10 6.66602C10 7.77059 9.10457 8.66602 8 8.66602C6.89543 8.66602 6 7.77059 6 6.66602C6 5.56145 6.89543 4.66602 8 4.66602C9.10457 4.66602 10 5.56145 10 6.66602Z" fill="white"/>
</g>
</svg>
