<svg width="20" height="20" viewBox="0 0 20 20" fill="none" xmlns="http://www.w3.org/2000/svg">
<path d="M9.9155 18.0997C9.14201 18.1091 8.38716 18.0245 7.64162 17.8365C7.4366 17.7896 7.26885 17.8084 7.08247 17.9211C6.25306 18.4099 5.41433 18.8892 4.5756 19.3591C4.21215 19.5659 4.10032 19.4907 4.091 19.0772C4.08168 18.2031 4.06304 17.3196 4.06304 16.4456C4.06304 16.2482 3.99781 16.126 3.8487 16.0038C-0.792261 12.2726 -0.466089 5.43989 4.50105 2.1692C8.39647 -0.396601 13.6059 0.101522 16.8397 3.35341C20.6512 7.18801 20.0175 13.3253 15.4977 16.408C13.8482 17.5264 11.9844 18.0903 9.9155 18.0997ZM8.36852 9.92299C8.5549 9.91359 8.65741 10.0452 8.76924 10.1673C9.35635 10.7877 9.94346 11.3986 10.5306 12.0189C10.8288 12.329 10.922 12.3384 11.2016 12.0283C12.4969 10.6467 13.783 9.27449 15.0783 7.8929C15.1529 7.81772 15.302 7.73313 15.2088 7.60155C15.1063 7.45117 14.9758 7.58275 14.8733 7.63914C13.8296 8.20305 12.7858 8.76697 11.7607 9.34968C11.4345 9.52825 11.2202 9.49065 10.9686 9.2181C10.4094 8.5884 9.83163 7.98689 9.25384 7.37599C8.93699 7.03764 8.85312 7.03764 8.52694 7.38538C7.23157 8.75757 5.9362 10.1392 4.64084 11.5113C4.55696 11.5959 4.39854 11.6805 4.51037 11.8309C4.6222 11.9719 4.74335 11.8215 4.84586 11.7745C5.89893 11.2106 6.952 10.6373 8.00507 10.064C8.12622 9.98878 8.23805 9.91359 8.36852 9.92299Z" fill="#5F49EA"/>
</svg>
