<svg width="20" height="19" viewBox="0 0 20 19" fill="none" xmlns="http://www.w3.org/2000/svg">
<path d="M16.9358 2.85586C15.1718 1.08398 12.8199 0.0996094 10.3374 0.0996094C5.1762 0.0996094 0.995018 4.29961 0.995018 9.48398C0.995018 11.1246 1.45234 12.7652 2.23631 14.1434L0.929688 18.9996L5.89485 17.6871C7.2668 18.409 8.76941 18.8027 10.3374 18.8027C15.4985 18.8027 19.6797 14.6027 19.6797 9.41836C19.6144 6.99024 18.6997 4.62773 16.9358 2.85586ZM14.8452 12.8309C14.6492 13.3559 13.7346 13.8809 13.2772 13.9465C12.8853 14.0121 12.3626 14.0121 11.84 13.8809C11.5133 13.7496 11.056 13.6184 10.5333 13.3559C8.18143 12.3715 6.67882 10.009 6.54816 9.81211C6.41749 9.68086 5.56819 8.56523 5.56819 7.38398C5.56819 6.20273 6.15617 5.67773 6.35216 5.41523C6.54815 5.15273 6.80948 5.15273 7.00547 5.15273C7.13613 5.15273 7.33213 5.15273 7.46279 5.15273C7.59345 5.15273 7.78944 5.08711 7.98544 5.54648C8.18143 6.00586 8.63875 7.18711 8.70408 7.25273C8.76941 7.38398 8.76941 7.51523 8.70408 7.64648C8.63875 7.77774 8.57341 7.90898 8.44275 8.04023C8.31209 8.17148 8.18143 8.36836 8.1161 8.43398C7.98544 8.56523 7.85478 8.69648 7.98544 8.89336C8.1161 9.15586 8.57342 9.87773 9.29206 10.534C10.2067 11.3215 10.9253 11.584 11.1867 11.7152C11.448 11.8465 11.5786 11.7809 11.7093 11.6496C11.84 11.5184 12.2973 10.9934 12.4279 10.7309C12.5586 10.4684 12.7546 10.534 12.9506 10.5996C13.1466 10.6652 14.3225 11.2559 14.5185 11.3871C14.7799 11.5184 14.9105 11.584 14.9759 11.6496C15.0412 11.8465 15.0412 12.3059 14.8452 12.8309Z" fill="#5F49EA"/>
</svg>
