<svg width="16" height="17" viewBox="0 0 16 17" fill="none" xmlns="http://www.w3.org/2000/svg">
<path d="M13.2764 0.799805H2.41784C1.19188 0.799805 0.257812 1.74134 0.257812 2.97711V13.9225C0.257812 15.1583 1.19188 16.0998 2.41784 16.0998H13.2764C14.5023 16.0998 15.4364 15.1583 15.4364 13.9225V2.97711C15.4364 1.74134 14.5023 0.799805 13.2764 0.799805ZM7.84709 13.0398C10.3574 13.0398 12.4007 11.039 12.4007 8.62634C12.4007 8.21442 12.3423 7.74365 12.2255 7.39057H13.5099V13.6283C13.5099 13.9225 13.2763 14.2167 12.9261 14.2167H2.76811C2.47622 14.2167 2.18432 13.9813 2.18432 13.6283V7.33173H3.52704C3.41029 7.74365 3.35191 8.15557 3.35191 8.5675C3.29353 11.039 5.33679 13.0398 7.84709 13.0398ZM7.84709 11.2744C6.21248 11.2744 4.92814 9.9798 4.92814 8.39096C4.92814 6.80211 6.21248 5.5075 7.84709 5.5075C9.48171 5.5075 10.766 6.80211 10.766 8.39096C10.766 10.0387 9.48171 11.2744 7.84709 11.2744ZM13.4515 4.97788C13.4515 5.33096 13.1596 5.62519 12.8093 5.62519H11.1747C10.8244 5.62519 10.5325 5.33096 10.5325 4.97788V3.38904C10.5325 3.03596 10.8244 2.74173 11.1747 2.74173H12.8093C13.1596 2.74173 13.4515 3.03596 13.4515 3.38904V4.97788Z" fill="#5F49EA"/>
</svg>
