<svg width="19" height="17" viewBox="0 0 19 17" fill="none" xmlns="http://www.w3.org/2000/svg">
<path d="M0.985001 8.33648L5.09045 9.87956L6.69086 15.0699C6.76044 15.4206 7.17795 15.4908 7.45628 15.2804L9.75253 13.3866C9.96128 13.1762 10.3092 13.1762 10.5875 13.3866L14.693 16.4026C14.9713 16.613 15.3888 16.4727 15.4584 16.122L18.5201 1.39259C18.5897 1.04189 18.2417 0.691196 17.8938 0.831476L0.985001 7.42466C0.5675 7.56494 0.5675 8.1962 0.985001 8.33648ZM6.48212 9.10802L14.5538 4.12806C14.693 4.05792 14.8321 4.26835 14.693 4.33849L8.08253 10.581C7.87378 10.7914 7.66503 11.0719 7.66503 11.4226L7.45628 13.106C7.45628 13.3164 7.10836 13.3866 7.03878 13.106L6.20377 10.0198C5.99502 9.66914 6.1342 9.2483 6.48212 9.10802Z" fill="#5F49EA"/>
</svg>
